<svg height="98.743" width="560.063" xmlns="http://www.w3.org/2000/svg"><path d="M133.673 54.243v28.09h-15.68v-25.81c0-4.1-2.83-6.75-6.66-6.75s-6.56 2.64-6.56 6.75v25.81h-15.68v-45.59h14.32v3.74c3.1-2.92 7.48-4.83 12.86-4.83 10.66-.01 17.4 7.37 17.4 18.59zm52.71 10.759h-29.18c1.73 3.56 5.29 5.2 10.21 5.2 4.38 0 8.21-1.28 11.95-3.56l5.65 10.67c-5.47 4.1-11.49 6.11-18.15 6.11-15.05 0-25.62-10.3-25.62-23.89s10.67-23.89 24.35-23.89c13.5 0 21.79 10.03 21.79 21.61 0 2.73-.45 5.74-1 7.75zm-29.73-10.21h15.87c-.18-4.19-3.56-6.84-7.57-6.84-3.83 0-7.02 2.46-8.3 6.84zm79.97-21.609l-10.49 8.02c-2.74-4.01-5.38-6.38-9.94-6.38-3.1 0-5.38 1.09-5.38 3.83 0 2.28 1.46 3.37 5.2 4.92l6.93 2.92c10.03 4.19 15.41 9.3 15.41 18.15 0 11.85-9.67 18.78-22.07 18.78-11.03 0-19.7-5.38-23.98-13.5l10.58-8.02c2.92 3.92 6.66 7.75 13.4 7.75 4.19 0 6.2-1.46 6.2-4.38 0-2.83-1.92-3.74-6.11-5.56l-6.2-2.74c-9.57-4.2-15.23-9.67-15.23-18.15 0-10.76 8.84-17.78 21.06-17.78 10.5.01 17.16 5.2 20.62 12.14zm41.31 36.009v13.13a39.17 39.17 0 01-9.21 1.09c-12.67 0-20.06-6.11-20.06-18.51v-15.04h-6.93v-13.13h6.93v-10.94h15.68v10.94h12.22v13.13h-12.22v13.5c0 4.29 2.1 6.02 7.84 6.02 1.28 0 3.29-.1 5.75-.19zm49.97-4.19h-29.18c1.73 3.56 5.29 5.2 10.21 5.2 4.38 0 8.21-1.28 11.95-3.56l5.65 10.67c-5.47 4.1-11.49 6.11-18.15 6.11-15.05 0-25.62-10.3-25.62-23.89s10.67-23.89 24.35-23.89c13.5 0 21.79 10.03 21.79 21.61 0 2.73-.45 5.74-1 7.75zm-29.73-10.21h15.87c-.18-4.19-3.56-6.84-7.57-6.84-3.83 0-7.02 2.46-8.3 6.84zm87.91 4.65c0 13.95-9.12 23.98-21.88 23.98-4.92 0-8.85-1.55-11.67-4.19v19.51h-15.68v-62.01h14.32v4.74c2.83-3.83 7.2-5.84 13.04-5.84 12.75.01 21.87 9.85 21.87 23.81zm-16.05.09c0-6.38-4.29-9.67-8.94-9.67-4.38 0-8.85 2.92-8.85 9.58 0 6.57 4.38 9.76 8.85 9.76 4.56-.01 8.94-3.29 8.94-9.67z" fill="#002e6d"/><g fill="#1ba6ff"><path d="M450.453 34.452l-10.94 9.3c-3.74-5.2-8.39-8.3-15.23-8.3-10.21 0-16.41 6.84-16.41 16.78 0 10.21 6.57 17.23 17.33 17.23 5.75 0 10.3-2.01 13.22-5.38v-2.83h-14.04v-13.5h29.73v18.97c-5.38 9.57-16.14 16.69-29.54 16.69-18.42 0-32.74-13.4-32.74-31.19 0-17.69 14.22-31.19 32.74-31.19 11.11.02 20.05 4.85 25.88 13.42zm59.46 8.391c0 12.49-10.03 20.79-23.25 20.79h-7.93v18.69h-15.69v-60.18h23.62c13.22 0 23.25 7.93 23.25 20.7zm-31.19-7.02v14.13h8.02c4.38 0 7.2-2.83 7.2-7.11 0-4.2-2.83-7.02-7.2-7.02zm79.61-2.64l-10.49 8.02c-2.74-4.01-5.38-6.38-9.94-6.38-3.1 0-5.38 1.09-5.38 3.83 0 2.28 1.46 3.37 5.2 4.92l6.93 2.92c10.03 4.19 15.41 9.3 15.41 18.15 0 11.85-9.67 18.78-22.07 18.78-11.03 0-19.7-5.38-23.98-13.5l10.58-8.02c2.92 3.92 6.66 7.75 13.4 7.75 4.2 0 6.2-1.46 6.2-4.38 0-2.83-1.92-3.74-6.11-5.56l-6.2-2.74c-9.57-4.2-15.23-9.67-15.23-18.15 0-10.76 8.85-17.78 21.06-17.78 10.49.01 17.15 5.2 20.62 12.14zm-544.61.4a2.502 2.502 0 01-2.14-3.79c5.49-9.09 14.08-15.76 24.21-18.8 1.32-.4 2.72.36 3.11 1.68.4 1.32-.36 2.72-1.68 3.11-8.93 2.67-16.52 8.57-21.36 16.59-.47.78-1.29 1.21-2.14 1.21z"/><path d="M2.493 33.783a2.5 2.5 0 01-2.27-3.53c.86-1.9 1.84-3.77 2.92-5.56 6.76-11.2 17.35-19.42 29.83-23.16 2.12-.64 4.32-1.14 6.51-1.5 1.36-.22 2.65.7 2.87 2.06s-.7 2.65-2.06 2.87c-1.99.33-3.97.78-5.89 1.36-11.28 3.38-20.87 10.82-26.98 20.95-.98 1.62-1.86 3.31-2.64 5.03a2.53 2.53 0 01-2.29 1.48zm31.4 18.849l9.92 4.25 4.26 9.93 10.67-24.83z"/></g><path d="M48.443 20.553c-17.49 0-31.66 14.18-31.66 31.66 0 17.49 14.18 31.66 31.66 31.66s31.66-14.18 31.66-31.66c0-17.49-14.17-31.66-31.66-31.66zm1.44 46.88l-1.81 4.21-1.85-4.32c-6.65-.97-11.9-6.21-12.88-12.86l-4.28-1.84 4.17-1.79c.69-7.8 7.24-13.92 15.22-13.92 3.59 0 6.89 1.25 9.5 3.33l4.44-1.9-1.91 4.45a15.19 15.19 0 013.26 9.42c-.01 7.96-6.09 14.5-13.86 15.22z" fill="#002e6d"/></svg>